# xmcd CD database file
#
# Track frame offsets:
#	150
#	21857
#	33310
#	54367
#	74155
#	103542
#	116400
#	137237
#	158805
#	173252
#
# Disc length: 2529 seconds
#
# Revision: 0
# Processed by: cddbd v1.4PL0 Copyright (c) Steve Scherf et al.
# Submitted via: CDex 1.50beta10
#
DISCID=7e09df0a
DTITLE=Jackie and Roy - Time and love
DYEAR=1972
DGENRE=Jazz
TTITLE0=Day by day
TTITLE1=Time and love
TTITLE2=Summer song - Summertime
TTITLE3=Bachianas brasileiras #5
TTITLE4=A simple song
TTITLE5=Heading
TTITLE6=Lazy afternoon
TTITLE7=We could be flying
TTITLE8=Tapestry
TTITLE9=Tomorrow's dream
EXTD=YEAR: 1972
EXTT0=
EXTT1=
EXTT2=
EXTT3=
EXTT4=
EXTT5=
EXTT6=
EXTT7=
EXTT8=
EXTT9=
PLAYORDER=
